PathFileType	4	(X/Y/Z)	C:\Users\Caesar\Desktop\毕业设计\1-评估老年人缺少的力\Data\s4\S4_T_02_fixed.trc	Maker trajectories (.TRC) by Lee-Son ToolBox																																																																																				
DataRate	CameraRate	NumFrames	NumMarkers	Units	OrigDataRate	OrigDataStartFrame	OrigNumFrames																																																																																	
100	100	8	29	mm	100	251	1000																																																																																	
Frame#	Time	Unlabeled27			Unlabeled48			Unlabeled26			HEAD			C7			T10			STERN			LSHO			LELB			RSHO			RELB			LASI			RASI			LPSI			RPSI			LHIP			LTHI			LKNE			LTIB			LANK			LHEE			LTOE			RHIP			RTHI			RKNE			RTIB			RANK			RHEE			RTOE		
		X1	Y1	Z1	X2	Y2	Z2	X3	Y3	Z3	X4	Y4	Z4	X5	Y5	Z5	X6	Y6	Z6	X7	Y7	Z7	X8	Y8	Z8	X9	Y9	Z9	X10	Y10	Z10	X11	Y11	Z11	X12	Y12	Z12	X13	Y13	Z13	X14	Y14	Z14	X15	Y15	Z15	X16	Y16	Z16	X17	Y17	Z17	X18	Y18	Z18	X19	Y19	Z19	X20	Y20	Z20	X21	Y21	Z21	X22	Y22	Z22	X23	Y23	Z23	X24	Y24	Z24	X25	Y25	Z25	X26	Y26	Z26	X27	Y27	Z27	X28	Y28	Z28	X29	Y29	Z29
																																																																																								
251	2.5	764.946	168.25	1090.8	774.222	168.915	1794.84	214.346	171.336	1098.14	598.641	1670.6	1420.97	403.281	1502.22	1410.19	349.004	1369.14	1414.47	559.645	1392.34	1418.89	475.592	1493.05	1271.55	561.571	1209.4	1162.87	468.007	1496.22	1573.52	568.739	1205.6	1681.6	501.194	1043.14	1298.95	522.735	1035.22	1535.72	311.818	1109.47	1374.7	319.557	1106.01	1500.24	403.351	1003.23	1259.04	424.03	769.982	1283.31	397.513	629.294	1304.24	352.501	381.085	1333.39	304.189	288.462	1352.7	263.789	251.098	1350.54	475.453	223.645	1383.2	448.639	1005.83	1597.7	520.437	878.211	1572.7	549.103	637.263	1557.95	507.354	528.898	1557.81	322.799	353.509	1553.97	268.553	338.832	1549.28	450.805	228.226	1529.81
252	2.51	764.917	168.268	1090.77	774.219	168.917	1794.84	214.356	171.321	1098.13	597.867	1670.17	1420.52	402.344	1502	1409.84	347.867	1369.02	1414.19	558.969	1391.97	1418.26	474.577	1492.7	1271.09	561.478	1209.2	1163.08	467.221	1495.87	1573.18	568.585	1205.44	1680.8	498.838	1042.52	1298.46	521.661	1034.95	1535.11	309.993	1109.38	1375.22	318.313	1105.94	1500.69	400.61	1003	1259.06	418.387	769.929	1283.29	389.927	629.542	1304.01	342.968	381.669	1333.22	293.885	289.385	1352.92	253.094	252.454	1350.8	464.529	223.19	1383.26	447.939	1005.93	1597.58	521.108	879.831	1572.25	553.987	639.629	1557.7	516.1	529.771	1557.61	339.493	346.667	1553.29	286.072	329.284	1548.07	473.435	227.463	1529.94
253	2.52	764.887	168.287	1090.74	774.214	168.917	1794.83	214.376	171.299	1098.13	597.088	1669.65	1420.11	401.423	1501.7	1409.57	346.707	1368.84	1414.05	558.347	1391.44	1417.68	473.531	1492.22	1270.69	561.29	1208.83	1163.42	466.539	1495.43	1572.89	568.476	1205.21	1680.19	496.448	1041.84	1298.04	520.462	1034.53	1534.58	308.125	1109.2	1375.74	316.974	1105.77	1501.13	397.871	1002.69	1259.09	412.883	769.843	1283.3	382.519	629.777	1303.82	333.548	382.252	1333.09	283.607	290.341	1353.13	242.425	253.872	1351.05	453.591	222.733	1383.3	447.082	1005.9	1597.51	521.435	881.261	1571.88	558.241	641.845	1557.6	524.415	530.643	1557.56	356.456	339.828	1552.47	303.947	319.849	1546.7	496.013	227.012	1530.09
254	2.53	764.858	168.304	1090.72	774.208	168.915	1794.83	214.404	171.268	1098.12	596.316	1669.05	1419.74	400.527	1501.33	1409.39	345.536	1368.61	1414.05	557.732	1390.78	1417.17	472.469	1491.62	1270.36	561.028	1208.32	1163.87	465.958	1494.93	1572.65	568.413	1204.94	1679.76	494.037	1041.08	1297.68	519.156	1034	1534.13	306.225	1108.95	1376.24	315.555	1105.52	1501.56	395.142	1002.32	1259.13	407.515	769.725	1283.35	375.294	630.005	1303.69	324.225	382.841	1333.02	273.366	291.335	1353.33	231.795	255.352	1351.29	442.651	222.273	1383.34	446.084	1005.75	1597.48	521.423	882.485	1571.61	561.829	643.874	1557.64	532.27	531.507	1557.62	373.641	333.082	1551.51	322.127	310.636	1545.18	518.475	226.926	1530.25
255	2.54	764.836	168.317	1090.7	774.203	168.912	1794.83	214.436	171.233	1098.12	595.56	1668.38	1419.43	399.661	1500.9	1409.27	344.365	1368.33	1414.18	557.078	1389.97	1416.73	471.404	1490.93	1270.09	560.71	1207.71	1164.41	465.469	1494.38	1572.43	568.388	1204.66	1679.53	491.617	1040.26	1297.37	517.765	1033.37	1533.75	304.303	1108.65	1376.73	314.072	1105.21	1501.99	392.433	1001.88	1259.18	402.265	769.585	1283.43	368.239	630.24	1303.61	314.971	383.452	1332.99	263.177	292.37	1353.52	221.219	256.887	1351.52	431.718	221.814	1383.37	444.962	1005.49	1597.5	521.083	883.488	1571.48	564.723	645.68	1557.8	539.642	532.35	1557.77	391	326.526	1550.44	340.561	301.749	1543.55	540.755	227.255	1530.38
256	2.55	764.819	168.326	1090.68	774.2	168.907	1794.82	214.461	171.2	1098.11	594.83	1667.67	1419.18	398.83	1500.43	1409.22	343.204	1368.02	1414.41	556.349	1389.03	1416.36	470.353	1490.16	1269.9	560.355	1207.03	1165.01	465.054	1493.79	1572.25	568.386	1204.39	1679.52	489.199	1039.39	1297.12	516.311	1032.67	1533.45	302.367	1108.3	1377.2	312.54	1104.84	1502.4	389.751	1001.39	1259.24	397.103	769.437	1283.57	361.324	630.497	1303.6	305.754	384.106	1333.02	253.051	293.447	1353.7	210.702	258.472	1351.73	420.804	221.356	1383.41	443.731	1005.14	1597.56	520.426	884.253	1571.51	566.912	647.232	1558.05	546.515	533.158	1557.97	408.48	320.262	1549.28	359.206	293.286	1541.87	562.788	228.043	1530.4
257	2.56	764.808	168.332	1090.68	774.199	168.902	1794.82	214.469	171.179	1098.1	594.136	1666.91	1419.01	398.04	1499.93	1409.24	342.062	1367.69	1414.72	555.525	1387.97	1416.07	469.328	1489.34	1269.78	559.976	1206.3	1165.65	464.695	1493.17	1572.11	568.393	1204.13	1679.7	486.796	1038.49	1296.92	514.82	1031.9	1533.21	300.434	1107.9	1377.66	310.977	1104.43	1502.81	387.105	1000.86	1259.33	391.996	769.296	1283.75	354.511	630.792	1303.64	296.55	384.822	1333.07	242.995	294.564	1353.88	200.246	260.104	1351.93	409.912	220.901	1383.46	442.414	1004.7	1597.63	519.47	884.769	1571.71	568.398	648.501	1558.39	552.875	533.914	1558.2	426.029	314.384	1548.06	378.015	285.336	1540.19	584.507	229.329	1530.23
258	2.57	764.801	168.336	1090.68	774.2	168.897	1794.83	214.453	171.173	1098.11	593.486	1666.1	1418.9	397.295	1499.39	1409.32	340.946	1367.34	1415.11	554.602	1386.82	1415.86	468.341	1488.49	1269.73	559.589	1205.55	1166.3	464.378	1492.54	1572.02	568.402	1203.88	1680.05	484.418	1037.57	1296.78	513.319	1031.09	1533.04	298.517	1107.47	1378.13	309.398	1103.97	1503.21	384.5	1000.31	1259.43	386.921	769.18	1283.97	347.769	631.14	1303.73	287.35	385.612	1333.16	233.02	295.727	1354.03	189.854	261.786	1352.11	399.043	220.453	1383.53	441.032	1004.18	1597.73	518.239	885.024	1572.07	569.205	649.474	1558.78	558.715	534.606	1558.43	443.588	308.978	1546.8	396.932	277.981	1538.54	605.841	231.148	1529.81
